<svg fill="#ec5c1c" data-icon="true" xml:space="preserve" viewBox="-20 -20 140 140" y="0px" x="0px" version="1.1" xmlns:xlink="http://www.w3.org/1999/xlink" xmlns="http://www.w3.org/2000/svg"><g><path d="M44.3,61.8l-3.3-2c0,0,0,0,0,0l-3-1.7c-0.3-0.2-0.6-0.2-0.8,0c-0.3,0.1-0.4,0.4-0.4,0.7v12.6c0,0.3,0.2,0.6,0.4,0.7l3,1.7 l3.3,2c0.1,0.1,0.3,0.1,0.4,0.1c0.1,0,0.3,0,0.4-0.1c0.3-0.1,0.4-0.4,0.4-0.7V62.5C44.7,62.2,44.5,61.9,44.3,61.8z M39.7,71.6 l-1.3-0.7v-5.5l1.3,0.7V71.6z M39.7,64.2l-1.3-0.7v-3.3l1.3,0.8V64.2z M43,73.6l-1.7-1v-5.6L43,68V73.6z M43,66.1l-1.7-0.9V62 l1.7,1V66.1z"></path><path d="M30.9,54.9l-3.3-2c0,0,0,0,0,0l-3-1.7c-0.3-0.2-0.6-0.2-0.8,0c-0.3,0.1-0.4,0.4-0.4,0.7v12.6c0,0.3,0.2,0.6,0.4,0.7l3,1.7 l3.3,2c0.1,0.1,0.3,0.1,0.4,0.1c0.1,0,0.3,0,0.4-0.1c0.3-0.1,0.4-0.4,0.4-0.7V55.6C31.3,55.3,31.1,55,30.9,54.9z M26.3,64.7L25,64 v-5.5l1.3,0.7V64.7z M26.3,57.3L25,56.6v-3.3l1.3,0.8V57.3z M29.6,66.7l-1.7-1v-5.6l1.7,0.9V66.7z M29.6,59.2l-1.7-0.9v-3.2l1.7,1 V59.2z"></path><path d="M18,47.6l-3.3-2c0,0,0,0,0,0l-3-1.7c-0.3-0.2-0.6-0.2-0.8,0c-0.3,0.1-0.4,0.4-0.4,0.7v12.6c0,0.3,0.2,0.6,0.4,0.7l3,1.7 l3.3,2c0.1,0.1,0.3,0.1,0.4,0.1c0.1,0,0.3,0,0.4-0.1c0.3-0.1,0.4-0.4,0.4-0.7V48.3C18.4,48,18.2,47.8,18,47.6z M13.4,57.5l-1.3-0.7 v-5.5l1.3,0.7V57.5z M13.4,50l-1.3-0.7V46l1.3,0.8V50z M16.7,59.5l-1.7-1v-5.6l1.7,0.9V59.5z M16.7,51.9L15,51v-3.2l1.7,1V51.9z"></path><path d="M40.8,30.5l-3.2-1.6c0,0,0,0,0,0l0,0c0,0,0,0,0,0c0,0,0,0,0,0l-3.4-1.5c-0.3-0.1-0.6-0.1-0.8,0.1c-0.2,0.2-0.4,0.4-0.4,0.7 v8c0,0.3,0.2,0.6,0.5,0.7l3.4,1.7c0,0,0,0,0,0l3.2,1.6c0.1,0.1,0.2,0.1,0.4,0.1c0.2,0,0.3,0,0.4-0.1c0.2-0.2,0.4-0.4,0.4-0.7l0-4.1 c0,0,0,0,0,0v-4.1C41.2,30.9,41.1,30.6,40.8,30.5z M36.3,36.4l-1.7-0.9v-2.1l1.7,0.8V36.4z M36.3,32.4l-1.7-0.8v-2.2l1.7,0.7V32.4z M39.6,38L38,37.3V35l1.6,0.8L39.6,38z M39.6,33.9L38,33.2V31l1.6,0.8V33.9z"></path><path d="M95,40.3C95,40.3,95,40.3,95,40.3c0-0.1,0-0.2-0.1-0.2c0,0,0,0,0,0c0-0.1-0.1-0.1-0.1-0.2c0,0,0,0,0,0 c-0.1-0.1-0.1-0.1-0.2-0.1c0,0,0,0,0,0l-17.5-8.4V18.8l0.6-0.4c0.2-0.1,0.4-0.4,0.4-0.7c0-0.3-0.1-0.5-0.3-0.7L63.4,5.4 c-0.2-0.2-0.5-0.2-0.8-0.2c-0.1,0-0.2,0-0.3,0L47.1,5.9c-0.1,0-0.3,0-0.4,0.1l-14.2,8.8H20.6c-0.1,0-0.1,0-0.2,0c0,0,0,0,0,0 c-0.1,0-0.1,0.1-0.2,0.1c0,0,0,0,0,0c-0.1,0-0.1,0.1-0.2,0.2c0,0,0,0,0,0L5.2,34.6c0,0,0,0,0,0c0,0,0,0.1-0.1,0.1c0,0,0,0,0,0 c0,0,0,0.1,0,0.1c0,0,0,0,0,0C5,35,5,35,5,35.1v0c0,0,0,0,0,0v25.2c0,0.3,0.2,0.6,0.4,0.7l40.3,21.2l-1.3,0.6 c-0.3,0.1-0.5,0.4-0.5,0.8v4c0,0.3,0.2,0.6,0.5,0.7l12.5,6.4c0.1,0.1,0.3,0.1,0.4,0.1c0.2,0,0.4-0.1,0.5-0.2l4.7-3.7l4.7,2.4 c0,0,0,0,0,0c0,0,0.1,0,0.1,0c0,0,0,0,0.1,0c0.1,0,0.1,0,0.2,0c0,0,0,0,0,0c0,0,0,0,0,0c0,0,0,0,0,0c0,0,0,0,0,0c0.1,0,0.2,0,0.2,0 c0,0,0,0,0.1,0c0,0,0.1,0,0.1,0c0,0,0,0,0,0c0,0,0,0,0,0l26.6-20.7c0.2-0.2,0.3-0.4,0.3-0.7V40.4C95,40.4,95,40.4,95,40.3z M81.4,41.8l-15.6-7.3l10.2-1.9l15.4,7.4L81.4,41.8z M75.4,31.1L63,33.3c0,0,0,0,0,0l0,0c0,0,0,0,0,0c-0.1,0-0.1,0-0.2,0.1 c-0.2,0.1-0.4,0.2-0.6,0.3c0,0,0,0,0,0c-0.1,0.1-0.2,0.3-0.3,0.4l-11,14l0.1-13.6l0.8,0.8c0.2,0.2,0.4,0.2,0.6,0.2 c0.2,0,0.3,0,0.5-0.1l22.6-15.6V31.1z M26.2,23.4l12.1-0.8l11,10.4l-0.1,16.3l-22.9-11V23.4z M75.8,17.6L52.4,33.7L40,22L62.9,7.1 L75.8,17.6z M47.4,7.6L59.9,7L38.3,21l-13.9,0.9l3.7-2.3c0,0,0,0,0,0L47.4,7.6z M27.6,17.9l-3-1.4h5.2L27.6,17.9z M20.9,16.8l5,2.2 l-5.2,3.2c-0.3,0.2-0.5,0.6-0.4,1c0.1,0.3,0.4,0.6,0.8,0.6c0,0,0,0,0.1,0l3.4-0.2v15.3c0,0.3,0.2,0.6,0.5,0.8l24.6,11.8 c0,0,0,0,0.1,0c0,0,0,0,0.1,0c0.1,0,0.2,0,0.2,0c0,0,0,0,0,0c0,0,0,0,0,0s0,0,0,0c0,0,0,0,0,0c0.1,0,0.1,0,0.2,0c0,0,0,0,0.1,0 c0,0,0.1,0,0.1-0.1c0,0,0,0,0,0c0,0,0,0,0,0c0,0,0.1,0,0.1-0.1c0,0,0,0,0.1-0.1c0,0,0,0,0,0l12.6-16c0,0,0,0,0,0L80.1,43L67.4,64.5 l-2.6-1.2l1-1.1c0.2-0.2,0.3-0.5,0.2-0.8l-2.5-11.7c-0.1-0.3-0.3-0.5-0.6-0.6c-0.3-0.1-0.6,0-0.8,0.2l-8.9,8.3L7.1,34.8l0,0 L20.9,16.8z M53.9,84.3l-2.2-1.2c0,0,0,0,0-0.1v-8.8l2.2,1.1V84.3z M55.1,74.2l-3.8-1.9c-0.3-0.1-0.6-0.1-0.8,0 c-0.2,0.2-0.4,0.4-0.4,0.7v9.3l-1.3-0.7c0,0,0-0.1,0-0.1V63.7l0.1-0.1l8,4.3l0.4,0.9l0.1,0.3v17.1l-1.8-1c0,0,0-0.1,0-0.1V74.9 C55.6,74.6,55.4,74.3,55.1,74.2z M55.7,65.4l-5.4-3l2.9-2.5L55.7,65.4z M58.5,67.5l-4.1-8.7l7.8-7.2l2.1,9.8L58.5,67.5z M59.1,69.2 l2.5-2.7v17.2l-2.5,1.5V69.2z M63.3,84.2V64.8l0.3-0.3l3.4,1.6l-0.2,25.1l-3.5-1.8V84.2z M6.7,36.4l45.2,22.3L48.2,62c0,0,0,0,0,0 l-0.8,0.7c-0.2,0.2-0.3,0.4-0.3,0.6V81L6.7,59.8V36.4z M61.6,89.5L57.2,93L45.7,87v-3l2.2-1.1l8.8,4.7c0.6,0.3,1.3,0.2,1.8-0.1 l3.2-1.9V89.5z M68.5,90.8l0.2-25l13.2-22.4l11.5-2v30L68.5,90.8z"></path><path d="M90.1,54.8c-0.3-0.1-0.6-0.1-0.9,0.1l-2.9,2.2c0,0,0,0,0,0l-3,2.2C83.2,59.5,83,59.7,83,60v13.5c0,0.3,0.2,0.6,0.5,0.7 c0.1,0.1,0.2,0.1,0.4,0.1c0.2,0,0.4-0.1,0.5-0.2l3-2.2c0,0,0,0,0,0c0,0,0,0,0,0c0,0,0,0,0,0l2.8-2.4c0.2-0.2,0.3-0.4,0.3-0.6V55.6 C90.6,55.3,90.4,55,90.1,54.8z M84.7,60.4l1.3-1l0,3.7l-1.3,1V60.4z M86.1,70.8l-1.3,1v-5.6l1.3-1L86.1,70.8z M88.9,68.5l-1.2,1 l0-5.5l1.2-0.9V68.5z M88.9,61l-1.2,0.9l0-3.7l1.2-0.9V61z"></path><path d="M79.9,62c-0.3-0.1-0.6-0.1-0.9,0.1l-2.9,2.2c0,0,0,0,0,0l-3,2.2c-0.2,0.2-0.3,0.4-0.3,0.7v13.5c0,0.3,0.2,0.6,0.5,0.7 c0.1,0.1,0.2,0.1,0.4,0.1c0.2,0,0.4-0.1,0.5-0.2l3-2.2c0,0,0,0,0,0c0,0,0,0,0,0l2.8-2.4c0.2-0.2,0.3-0.4,0.3-0.6V62.7 C80.4,62.4,80.2,62.1,79.9,62z M74.5,67.6l1.3-1l0,3.7l-1.3,1V67.6z M75.8,78l-1.3,1v-5.6l1.3-1L75.8,78z M78.7,75.6l-1.2,1l0-5.5 l1.2-0.9V75.6z M78.7,68.1L77.5,69l0-3.7l1.2-0.9V68.1z"></path></g></svg>
